<mxfile host="app.diagrams.net" agent="Mozilla/5.0 (Macintosh; Intel Mac OS X 10_15_7) AppleWebKit/537.36 (KHTML, like Gecko) Chrome/137.0.0.0 Safari/537.36" version="27.1.1">
  <diagram name="Page-1" id="8psTu5joOEkHxSPbt8DS">
    <mxGraphModel dx="2719" dy="2341" grid="1" gridSize="10" guides="1" tooltips="1" connect="1" arrows="1" fold="1" page="1" pageScale="1" pageWidth="827" pageHeight="1169" math="0" shadow="0">
      <root>
        <mxCell id="0" />
        <mxCell id="1" parent="0" />
        <mxCell id="5wcGb58u3SQSDJ49Bvyi-1" value="&lt;font style=&quot;font-size: 18px;&quot;&gt;AXI STREAM&lt;/font&gt;&lt;div&gt;&lt;font size=&quot;3&quot;&gt;Interface&lt;/font&gt;&lt;/div&gt;&lt;div&gt;&lt;font size=&quot;3&quot;&gt;(Slave)&lt;/font&gt;&lt;/div&gt;" style="rounded=0;whiteSpace=wrap;html=1;" parent="1" vertex="1">
          <mxGeometry x="160" y="20" width="170" height="179.5" as="geometry" />
        </mxCell>
        <mxCell id="5wcGb58u3SQSDJ49Bvyi-8" value="&lt;font style=&quot;font-size: 24px;&quot;&gt;AXI MEM (Master)&lt;/font&gt;" style="whiteSpace=wrap;html=1;" parent="1" vertex="1">
          <mxGeometry x="160" y="-263.88" width="1540" height="60" as="geometry" />
        </mxCell>
        <mxCell id="5wcGb58u3SQSDJ49Bvyi-29" value="" style="endArrow=classic;html=1;rounded=0;strokeWidth=3;" parent="1" edge="1">
          <mxGeometry width="50" height="50" relative="1" as="geometry">
            <mxPoint x="1280" y="-205.51" as="sourcePoint" />
            <mxPoint x="1280" y="2.49" as="targetPoint" />
          </mxGeometry>
        </mxCell>
        <mxCell id="5wcGb58u3SQSDJ49Bvyi-28" value="&lt;font style=&quot;font-size: 18px;&quot;&gt;AXI STREAM&lt;/font&gt;&lt;div&gt;&lt;font size=&quot;3&quot;&gt;Interface&lt;/font&gt;&lt;/div&gt;&lt;div&gt;&lt;font size=&quot;3&quot;&gt;(Master)&lt;/font&gt;&lt;/div&gt;" style="rounded=0;whiteSpace=wrap;html=1;" parent="1" vertex="1">
          <mxGeometry x="1600" y="43.61999999999989" width="80" height="143.75" as="geometry" />
        </mxCell>
        <mxCell id="1Rf1SUsvrOOBmwsHc8l4-15" value="" style="swimlane;startSize=0;" parent="1" vertex="1">
          <mxGeometry x="120" y="-313.63" width="1590" height="843.63" as="geometry" />
        </mxCell>
        <mxCell id="1Rf1SUsvrOOBmwsHc8l4-16" value="&lt;font style=&quot;font-size: 36px;&quot;&gt;&lt;b&gt;Digital Video Motion Detector&lt;/b&gt;&lt;/font&gt;" style="text;html=1;align=center;verticalAlign=middle;whiteSpace=wrap;rounded=0;" parent="1Rf1SUsvrOOBmwsHc8l4-15" vertex="1">
          <mxGeometry x="530" y="147.88" width="530" height="30" as="geometry" />
        </mxCell>
        <mxCell id="1Rf1SUsvrOOBmwsHc8l4-17" value="&lt;font style=&quot;font-size: 18px;&quot;&gt;AXI LITE&lt;/font&gt;&lt;div&gt;&lt;font size=&quot;3&quot;&gt;Interface&lt;/font&gt;&lt;/div&gt;&lt;div&gt;&lt;font size=&quot;3&quot;&gt;(Slave)&lt;/font&gt;&lt;/div&gt;" style="whiteSpace=wrap;html=1;" parent="1" vertex="1">
          <mxGeometry x="165" y="320" width="75" height="181" as="geometry" />
        </mxCell>
        <mxCell id="1Rf1SUsvrOOBmwsHc8l4-18" value="&lt;font style=&quot;font-size: 24px;&quot;&gt;Control&lt;/font&gt;" style="rounded=0;whiteSpace=wrap;html=1;" parent="1" vertex="1">
          <mxGeometry x="280" y="405.5" width="1420" height="60" as="geometry" />
        </mxCell>
        <mxCell id="1Rf1SUsvrOOBmwsHc8l4-19" value="" style="endArrow=classic;startArrow=classic;html=1;rounded=0;exitX=1.022;exitY=0.641;exitDx=0;exitDy=0;entryX=0;entryY=0.5;entryDx=0;entryDy=0;strokeWidth=3;exitPerimeter=0;" parent="1" source="1Rf1SUsvrOOBmwsHc8l4-17" target="1Rf1SUsvrOOBmwsHc8l4-18" edge="1">
          <mxGeometry width="50" height="50" relative="1" as="geometry">
            <mxPoint x="354" y="125.5" as="sourcePoint" />
            <mxPoint x="404" y="75.5" as="targetPoint" />
          </mxGeometry>
        </mxCell>
        <mxCell id="YUo0tV-gyAyulcyTNa2H-15" value="" style="endArrow=classic;startArrow=classic;html=1;rounded=0;exitX=0.5;exitY=1;exitDx=0;exitDy=0;strokeWidth=3;" parent="1" source="5wcGb58u3SQSDJ49Bvyi-28" edge="1">
          <mxGeometry width="50" height="50" relative="1" as="geometry">
            <mxPoint x="966" y="704.5000000000001" as="sourcePoint" />
            <mxPoint x="1640" y="400" as="targetPoint" />
          </mxGeometry>
        </mxCell>
        <mxCell id="dtxXoNMcvbrdOsO5oj5G-2" value="" style="edgeStyle=orthogonalEdgeStyle;rounded=0;orthogonalLoop=1;jettySize=auto;html=1;strokeWidth=3;exitX=1.008;exitY=0.565;exitDx=0;exitDy=0;exitPerimeter=0;" parent="1" source="5wcGb58u3SQSDJ49Bvyi-1" edge="1">
          <mxGeometry relative="1" as="geometry">
            <mxPoint x="560" y="121" as="targetPoint" />
            <mxPoint x="250" y="121" as="sourcePoint" />
          </mxGeometry>
        </mxCell>
        <mxCell id="dtxXoNMcvbrdOsO5oj5G-5" value="&lt;span style=&quot;font-size: 18px;&quot;&gt;Memory&lt;/span&gt;&lt;br&gt;&lt;div&gt;&lt;span style=&quot;font-size: 18px;&quot;&gt;Manager&lt;/span&gt;&lt;/div&gt;" style="rounded=0;whiteSpace=wrap;html=1;" parent="1" vertex="1">
          <mxGeometry x="329" y="-109.75" width="110" height="110" as="geometry" />
        </mxCell>
        <mxCell id="dtxXoNMcvbrdOsO5oj5G-6" value="" style="edgeStyle=orthogonalEdgeStyle;rounded=0;orthogonalLoop=1;jettySize=auto;html=1;strokeWidth=3;" parent="1" edge="1">
          <mxGeometry relative="1" as="geometry">
            <mxPoint x="363" y="-201" as="targetPoint" />
            <mxPoint x="362.89" y="-109.75" as="sourcePoint" />
          </mxGeometry>
        </mxCell>
        <mxCell id="XOc9_vDRdyOMPMZFaufi-3" value="" style="endArrow=classic;html=1;rounded=0;exitX=0;exitY=0.318;exitDx=0;exitDy=0;exitPerimeter=0;strokeWidth=3;" parent="1" edge="1">
          <mxGeometry width="50" height="50" relative="1" as="geometry">
            <mxPoint x="160" y="187.37" as="sourcePoint" />
            <mxPoint y="187.37" as="targetPoint" />
          </mxGeometry>
        </mxCell>
        <mxCell id="XOc9_vDRdyOMPMZFaufi-4" value="" style="endArrow=classic;html=1;rounded=0;strokeWidth=3;" parent="1" edge="1">
          <mxGeometry width="50" height="50" relative="1" as="geometry">
            <mxPoint y="157.37" as="sourcePoint" />
            <mxPoint x="160" y="157.37" as="targetPoint" />
          </mxGeometry>
        </mxCell>
        <mxCell id="XOc9_vDRdyOMPMZFaufi-8" value="[31:0] pixel" style="text;html=1;align=center;verticalAlign=middle;whiteSpace=wrap;rounded=0;" parent="1" vertex="1">
          <mxGeometry x="-1.5" y="90.87000000000002" width="70" height="30" as="geometry" />
        </mxCell>
        <mxCell id="XOc9_vDRdyOMPMZFaufi-9" value="valid" style="text;html=1;align=center;verticalAlign=middle;whiteSpace=wrap;rounded=0;" parent="1" vertex="1">
          <mxGeometry x="-10" y="60.87000000000001" width="70" height="30" as="geometry" />
        </mxCell>
        <mxCell id="XOc9_vDRdyOMPMZFaufi-10" value="last" style="text;html=1;align=center;verticalAlign=middle;whiteSpace=wrap;rounded=0;" parent="1" vertex="1">
          <mxGeometry x="-10" y="127.37" width="70" height="30" as="geometry" />
        </mxCell>
        <mxCell id="XOc9_vDRdyOMPMZFaufi-11" value="in_ready" style="text;html=1;align=center;verticalAlign=middle;resizable=0;points=[];autosize=1;strokeColor=none;fillColor=none;" parent="1" vertex="1">
          <mxGeometry x="9.5" y="157.37" width="70" height="30" as="geometry" />
        </mxCell>
        <mxCell id="XOc9_vDRdyOMPMZFaufi-34" value="clk" style="text;html=1;align=center;verticalAlign=middle;whiteSpace=wrap;rounded=0;" parent="1" vertex="1">
          <mxGeometry x="-10" y="14.370000000000001" width="70" height="30" as="geometry" />
        </mxCell>
        <mxCell id="XOc9_vDRdyOMPMZFaufi-36" value="rst" style="text;html=1;align=center;verticalAlign=middle;whiteSpace=wrap;rounded=0;" parent="1" vertex="1">
          <mxGeometry x="-10" y="37.37000000000001" width="70" height="30" as="geometry" />
        </mxCell>
        <mxCell id="XOc9_vDRdyOMPMZFaufi-41" value="[31:0] pixel" style="text;html=1;align=center;verticalAlign=middle;whiteSpace=wrap;rounded=0;" parent="1" vertex="1">
          <mxGeometry x="477" y="91" width="70" height="30" as="geometry" />
        </mxCell>
        <mxCell id="XOc9_vDRdyOMPMZFaufi-45" value="" style="edgeStyle=orthogonalEdgeStyle;rounded=0;orthogonalLoop=1;jettySize=auto;html=1;strokeWidth=3;" parent="1" edge="1">
          <mxGeometry relative="1" as="geometry">
            <mxPoint x="292" y="-392.38" as="targetPoint" />
            <mxPoint x="292" y="-263.88" as="sourcePoint" />
          </mxGeometry>
        </mxCell>
        <mxCell id="XOc9_vDRdyOMPMZFaufi-46" value="" style="edgeStyle=orthogonalEdgeStyle;rounded=0;orthogonalLoop=1;jettySize=auto;html=1;strokeWidth=3;" parent="1" edge="1">
          <mxGeometry relative="1" as="geometry">
            <mxPoint x="346" y="-265.88" as="targetPoint" />
            <mxPoint x="346" y="-389.38" as="sourcePoint" />
          </mxGeometry>
        </mxCell>
        <mxCell id="XOc9_vDRdyOMPMZFaufi-47" value="" style="edgeStyle=orthogonalEdgeStyle;rounded=0;orthogonalLoop=1;jettySize=auto;html=1;strokeWidth=3;" parent="1" edge="1">
          <mxGeometry relative="1" as="geometry">
            <mxPoint x="237" y="-392.38" as="targetPoint" />
            <mxPoint x="237" y="-263.88" as="sourcePoint" />
          </mxGeometry>
        </mxCell>
        <mxCell id="XOc9_vDRdyOMPMZFaufi-54" value="ARready" style="text;html=1;align=center;verticalAlign=middle;whiteSpace=wrap;rounded=0;" parent="1" vertex="1">
          <mxGeometry x="290" y="-373.13" width="60" height="30" as="geometry" />
        </mxCell>
        <mxCell id="XOc9_vDRdyOMPMZFaufi-55" value="[31:0] AWaddr" style="text;html=1;align=center;verticalAlign=middle;whiteSpace=wrap;rounded=0;" parent="1" vertex="1">
          <mxGeometry x="309" y="-165.5" width="60" height="30" as="geometry" />
        </mxCell>
        <mxCell id="XOc9_vDRdyOMPMZFaufi-56" value="ARvalid" style="text;html=1;align=center;verticalAlign=middle;resizable=0;points=[];autosize=1;strokeColor=none;fillColor=none;" parent="1" vertex="1">
          <mxGeometry x="235" y="-373.13" width="60" height="30" as="geometry" />
        </mxCell>
        <mxCell id="XOc9_vDRdyOMPMZFaufi-62" value="" style="edgeStyle=orthogonalEdgeStyle;rounded=0;orthogonalLoop=1;jettySize=auto;html=1;strokeWidth=3;" parent="1" edge="1">
          <mxGeometry relative="1" as="geometry">
            <mxPoint x="422.89" y="-203" as="targetPoint" />
            <mxPoint x="423" y="-111" as="sourcePoint" />
          </mxGeometry>
        </mxCell>
        <mxCell id="XOc9_vDRdyOMPMZFaufi-67" value="[31:0] ARaddr" style="text;html=1;align=center;verticalAlign=middle;whiteSpace=wrap;rounded=0;" parent="1" vertex="1">
          <mxGeometry x="369" y="-165.75" width="60" height="30" as="geometry" />
        </mxCell>
        <mxCell id="XOc9_vDRdyOMPMZFaufi-77" value="" style="edgeStyle=orthogonalEdgeStyle;rounded=0;orthogonalLoop=1;jettySize=auto;html=1;strokeWidth=3;" parent="1" edge="1">
          <mxGeometry relative="1" as="geometry">
            <mxPoint x="478" y="-200" as="targetPoint" />
            <mxPoint x="477.89" y="122.5" as="sourcePoint" />
          </mxGeometry>
        </mxCell>
        <mxCell id="XOc9_vDRdyOMPMZFaufi-78" value="[31:0] Rdata" style="text;html=1;align=center;verticalAlign=middle;whiteSpace=wrap;rounded=0;" parent="1" vertex="1">
          <mxGeometry x="1280" y="-115.26" width="60" height="30" as="geometry" />
        </mxCell>
        <mxCell id="XOc9_vDRdyOMPMZFaufi-80" value="[31:0] ARaddr" style="text;html=1;align=center;verticalAlign=middle;whiteSpace=wrap;rounded=0;" parent="1" vertex="1">
          <mxGeometry x="177" y="-373.13" width="60" height="30" as="geometry" />
        </mxCell>
        <mxCell id="XOc9_vDRdyOMPMZFaufi-82" value="" style="edgeStyle=orthogonalEdgeStyle;rounded=0;orthogonalLoop=1;jettySize=auto;html=1;strokeWidth=3;" parent="1" edge="1">
          <mxGeometry relative="1" as="geometry">
            <mxPoint x="615.62" y="-268.26" as="targetPoint" />
            <mxPoint x="615.62" y="-391.76" as="sourcePoint" />
          </mxGeometry>
        </mxCell>
        <mxCell id="XOc9_vDRdyOMPMZFaufi-84" value="Rready" style="text;html=1;align=center;verticalAlign=middle;whiteSpace=wrap;rounded=0;" parent="1" vertex="1">
          <mxGeometry x="617" y="-373.13" width="60" height="30" as="geometry" />
        </mxCell>
        <mxCell id="XOc9_vDRdyOMPMZFaufi-85" value="Rvalid" style="text;html=1;align=center;verticalAlign=middle;resizable=0;points=[];autosize=1;strokeColor=none;fillColor=none;" parent="1" vertex="1">
          <mxGeometry x="557" y="-370.63" width="60" height="30" as="geometry" />
        </mxCell>
        <mxCell id="XOc9_vDRdyOMPMZFaufi-86" value="[31:0] Rdata" style="text;html=1;align=center;verticalAlign=middle;whiteSpace=wrap;rounded=0;" parent="1" vertex="1">
          <mxGeometry x="510" y="-373.13" width="60" height="30" as="geometry" />
        </mxCell>
        <mxCell id="XOc9_vDRdyOMPMZFaufi-87" value="" style="edgeStyle=orthogonalEdgeStyle;rounded=0;orthogonalLoop=1;jettySize=auto;html=1;strokeWidth=3;" parent="1" edge="1">
          <mxGeometry relative="1" as="geometry">
            <mxPoint x="669" y="-394.76" as="targetPoint" />
            <mxPoint x="669" y="-266.26" as="sourcePoint" />
          </mxGeometry>
        </mxCell>
        <mxCell id="XOc9_vDRdyOMPMZFaufi-88" value="" style="edgeStyle=orthogonalEdgeStyle;rounded=0;orthogonalLoop=1;jettySize=auto;html=1;strokeWidth=3;" parent="1" edge="1">
          <mxGeometry relative="1" as="geometry">
            <mxPoint x="564" y="-268.26" as="targetPoint" />
            <mxPoint x="564" y="-391.76" as="sourcePoint" />
          </mxGeometry>
        </mxCell>
        <mxCell id="XOc9_vDRdyOMPMZFaufi-91" value="" style="edgeStyle=orthogonalEdgeStyle;rounded=0;orthogonalLoop=1;jettySize=auto;html=1;strokeWidth=3;" parent="1" edge="1">
          <mxGeometry relative="1" as="geometry">
            <mxPoint x="973" y="-393.13" as="targetPoint" />
            <mxPoint x="973" y="-264.63" as="sourcePoint" />
          </mxGeometry>
        </mxCell>
        <mxCell id="XOc9_vDRdyOMPMZFaufi-92" value="" style="edgeStyle=orthogonalEdgeStyle;rounded=0;orthogonalLoop=1;jettySize=auto;html=1;strokeWidth=3;" parent="1" edge="1">
          <mxGeometry relative="1" as="geometry">
            <mxPoint x="1027" y="-266.63" as="targetPoint" />
            <mxPoint x="1027" y="-390.13" as="sourcePoint" />
          </mxGeometry>
        </mxCell>
        <mxCell id="XOc9_vDRdyOMPMZFaufi-93" value="" style="edgeStyle=orthogonalEdgeStyle;rounded=0;orthogonalLoop=1;jettySize=auto;html=1;strokeWidth=3;" parent="1" edge="1">
          <mxGeometry relative="1" as="geometry">
            <mxPoint x="918" y="-393.13" as="targetPoint" />
            <mxPoint x="918" y="-264.63" as="sourcePoint" />
          </mxGeometry>
        </mxCell>
        <mxCell id="XOc9_vDRdyOMPMZFaufi-94" value="AWready" style="text;html=1;align=center;verticalAlign=middle;whiteSpace=wrap;rounded=0;" parent="1" vertex="1">
          <mxGeometry x="970" y="-373.13" width="60" height="30" as="geometry" />
        </mxCell>
        <mxCell id="XOc9_vDRdyOMPMZFaufi-95" value="AWvalid" style="text;html=1;align=center;verticalAlign=middle;resizable=0;points=[];autosize=1;strokeColor=none;fillColor=none;" parent="1" vertex="1">
          <mxGeometry x="913" y="-370.63" width="70" height="30" as="geometry" />
        </mxCell>
        <mxCell id="XOc9_vDRdyOMPMZFaufi-96" value="[31:0] AWaddr" style="text;html=1;align=center;verticalAlign=middle;whiteSpace=wrap;rounded=0;" parent="1" vertex="1">
          <mxGeometry x="862" y="-370.63" width="60" height="30" as="geometry" />
        </mxCell>
        <mxCell id="XOc9_vDRdyOMPMZFaufi-97" value="" style="edgeStyle=orthogonalEdgeStyle;rounded=0;orthogonalLoop=1;jettySize=auto;html=1;strokeWidth=3;" parent="1" edge="1">
          <mxGeometry relative="1" as="geometry">
            <mxPoint x="1325" y="-391.51" as="targetPoint" />
            <mxPoint x="1325" y="-263.01" as="sourcePoint" />
          </mxGeometry>
        </mxCell>
        <mxCell id="XOc9_vDRdyOMPMZFaufi-98" value="" style="edgeStyle=orthogonalEdgeStyle;rounded=0;orthogonalLoop=1;jettySize=auto;html=1;strokeWidth=3;" parent="1" edge="1">
          <mxGeometry relative="1" as="geometry">
            <mxPoint x="1379" y="-265.01" as="targetPoint" />
            <mxPoint x="1379" y="-388.51" as="sourcePoint" />
          </mxGeometry>
        </mxCell>
        <mxCell id="XOc9_vDRdyOMPMZFaufi-99" value="" style="edgeStyle=orthogonalEdgeStyle;rounded=0;orthogonalLoop=1;jettySize=auto;html=1;strokeWidth=3;" parent="1" edge="1">
          <mxGeometry relative="1" as="geometry">
            <mxPoint x="1270" y="-391.51" as="targetPoint" />
            <mxPoint x="1270" y="-263.01" as="sourcePoint" />
          </mxGeometry>
        </mxCell>
        <mxCell id="XOc9_vDRdyOMPMZFaufi-100" value="Wready" style="text;html=1;align=center;verticalAlign=middle;whiteSpace=wrap;rounded=0;" parent="1" vertex="1">
          <mxGeometry x="1320" y="-363.63" width="60" height="30" as="geometry" />
        </mxCell>
        <mxCell id="XOc9_vDRdyOMPMZFaufi-101" value="Wvalid" style="text;html=1;align=center;verticalAlign=middle;resizable=0;points=[];autosize=1;strokeColor=none;fillColor=none;" parent="1" vertex="1">
          <mxGeometry x="1270" y="-366.13" width="60" height="30" as="geometry" />
        </mxCell>
        <mxCell id="XOc9_vDRdyOMPMZFaufi-102" value="[31:0] Wdata" style="text;html=1;align=center;verticalAlign=middle;whiteSpace=wrap;rounded=0;" parent="1" vertex="1">
          <mxGeometry x="1210" y="-366.13" width="60" height="30" as="geometry" />
        </mxCell>
        <mxCell id="XOc9_vDRdyOMPMZFaufi-103" value="" style="edgeStyle=orthogonalEdgeStyle;rounded=0;orthogonalLoop=1;jettySize=auto;html=1;strokeWidth=3;" parent="1" edge="1">
          <mxGeometry relative="1" as="geometry">
            <mxPoint x="1433" y="-390.76" as="targetPoint" />
            <mxPoint x="1433" y="-262.26" as="sourcePoint" />
          </mxGeometry>
        </mxCell>
        <mxCell id="XOc9_vDRdyOMPMZFaufi-104" value="Wlast" style="text;html=1;align=center;verticalAlign=middle;whiteSpace=wrap;rounded=0;" parent="1" vertex="1">
          <mxGeometry x="1388" y="-366.13" width="50" height="30" as="geometry" />
        </mxCell>
        <mxCell id="XOc9_vDRdyOMPMZFaufi-107" value="" style="endArrow=classic;html=1;rounded=0;exitX=0;exitY=0.318;exitDx=0;exitDy=0;exitPerimeter=0;strokeWidth=3;" parent="1" edge="1">
          <mxGeometry width="50" height="50" relative="1" as="geometry">
            <mxPoint x="1679" y="160.48999999999998" as="sourcePoint" />
            <mxPoint x="1786" y="160.87" as="targetPoint" />
          </mxGeometry>
        </mxCell>
        <mxCell id="XOc9_vDRdyOMPMZFaufi-108" value="" style="endArrow=classic;html=1;rounded=0;exitX=0;exitY=0.318;exitDx=0;exitDy=0;exitPerimeter=0;strokeWidth=3;" parent="1" edge="1">
          <mxGeometry width="50" height="50" relative="1" as="geometry">
            <mxPoint x="1679" y="130.49" as="sourcePoint" />
            <mxPoint x="1786" y="130.87" as="targetPoint" />
          </mxGeometry>
        </mxCell>
        <mxCell id="XOc9_vDRdyOMPMZFaufi-109" value="" style="endArrow=classic;html=1;rounded=0;exitX=0;exitY=0.318;exitDx=0;exitDy=0;exitPerimeter=0;strokeWidth=3;" parent="1" edge="1">
          <mxGeometry width="50" height="50" relative="1" as="geometry">
            <mxPoint x="1679" y="100.48999999999998" as="sourcePoint" />
            <mxPoint x="1786" y="100.86999999999999" as="targetPoint" />
          </mxGeometry>
        </mxCell>
        <mxCell id="XOc9_vDRdyOMPMZFaufi-110" value="[31:0] pixel" style="text;html=1;align=center;verticalAlign=middle;whiteSpace=wrap;rounded=0;" parent="1" vertex="1">
          <mxGeometry x="1705.5" y="106.36999999999999" width="70" height="30" as="geometry" />
        </mxCell>
        <mxCell id="XOc9_vDRdyOMPMZFaufi-111" value="valid" style="text;html=1;align=center;verticalAlign=middle;whiteSpace=wrap;rounded=0;" parent="1" vertex="1">
          <mxGeometry x="1706" y="76.36999999999999" width="70" height="30" as="geometry" />
        </mxCell>
        <mxCell id="XOc9_vDRdyOMPMZFaufi-112" value="last" style="text;html=1;align=center;verticalAlign=middle;whiteSpace=wrap;rounded=0;" parent="1" vertex="1">
          <mxGeometry x="1700" y="138.37" width="70" height="30" as="geometry" />
        </mxCell>
        <mxCell id="XOc9_vDRdyOMPMZFaufi-116" value="" style="endArrow=classic;html=1;rounded=0;strokeWidth=3;" parent="1" edge="1">
          <mxGeometry width="50" height="50" relative="1" as="geometry">
            <mxPoint x="1790" y="73.49" as="sourcePoint" />
            <mxPoint x="1680" y="73.49" as="targetPoint" />
          </mxGeometry>
        </mxCell>
        <mxCell id="XOc9_vDRdyOMPMZFaufi-118" value="out_ready" style="text;html=1;align=center;verticalAlign=middle;resizable=0;points=[];autosize=1;strokeColor=none;fillColor=none;" parent="1" vertex="1">
          <mxGeometry x="1706" y="45.370000000000005" width="80" height="30" as="geometry" />
        </mxCell>
        <mxCell id="XOc9_vDRdyOMPMZFaufi-124" value="" style="endArrow=classic;html=1;rounded=0;strokeWidth=3;" parent="1" edge="1">
          <mxGeometry width="50" height="50" relative="1" as="geometry">
            <mxPoint y="124.60000000000001" as="sourcePoint" />
            <mxPoint x="160" y="124.60000000000001" as="targetPoint" />
          </mxGeometry>
        </mxCell>
        <mxCell id="XOc9_vDRdyOMPMZFaufi-125" value="" style="endArrow=classic;html=1;rounded=0;strokeWidth=3;" parent="1" edge="1">
          <mxGeometry width="50" height="50" relative="1" as="geometry">
            <mxPoint y="90.87" as="sourcePoint" />
            <mxPoint x="160" y="90.87" as="targetPoint" />
          </mxGeometry>
        </mxCell>
        <mxCell id="XOc9_vDRdyOMPMZFaufi-126" value="" style="endArrow=classic;html=1;rounded=0;strokeWidth=3;" parent="1" edge="1">
          <mxGeometry width="50" height="50" relative="1" as="geometry">
            <mxPoint x="-0.5" y="64.37" as="sourcePoint" />
            <mxPoint x="159.5" y="64.37" as="targetPoint" />
          </mxGeometry>
        </mxCell>
        <mxCell id="XOc9_vDRdyOMPMZFaufi-127" value="" style="endArrow=classic;html=1;rounded=0;strokeWidth=3;" parent="1" edge="1">
          <mxGeometry width="50" height="50" relative="1" as="geometry">
            <mxPoint y="39.6" as="sourcePoint" />
            <mxPoint x="160" y="39.6" as="targetPoint" />
          </mxGeometry>
        </mxCell>
        <mxCell id="XOc9_vDRdyOMPMZFaufi-128" value="" style="endArrow=classic;html=1;rounded=0;exitX=0;exitY=0.318;exitDx=0;exitDy=0;exitPerimeter=0;strokeWidth=3;" parent="1" edge="1">
          <mxGeometry width="50" height="50" relative="1" as="geometry">
            <mxPoint x="164" y="493" as="sourcePoint" />
            <mxPoint x="4" y="493" as="targetPoint" />
          </mxGeometry>
        </mxCell>
        <mxCell id="XOc9_vDRdyOMPMZFaufi-129" value="" style="endArrow=classic;html=1;rounded=0;strokeWidth=3;" parent="1" edge="1">
          <mxGeometry width="50" height="50" relative="1" as="geometry">
            <mxPoint x="4" y="463" as="sourcePoint" />
            <mxPoint x="164" y="463" as="targetPoint" />
          </mxGeometry>
        </mxCell>
        <mxCell id="XOc9_vDRdyOMPMZFaufi-130" value="[9:0] height" style="text;html=1;align=center;verticalAlign=middle;whiteSpace=wrap;rounded=0;" parent="1" vertex="1">
          <mxGeometry x="2.5" y="396.5" width="70" height="30" as="geometry" />
        </mxCell>
        <mxCell id="XOc9_vDRdyOMPMZFaufi-131" value="[10:0] width" style="text;html=1;align=center;verticalAlign=middle;whiteSpace=wrap;rounded=0;" parent="1" vertex="1">
          <mxGeometry x="-6" y="366.5" width="70" height="30" as="geometry" />
        </mxCell>
        <mxCell id="XOc9_vDRdyOMPMZFaufi-132" value="[7:0] threshold" style="text;html=1;align=center;verticalAlign=middle;whiteSpace=wrap;rounded=0;" parent="1" vertex="1">
          <mxGeometry x="-6" y="433" width="86" height="30" as="geometry" />
        </mxCell>
        <mxCell id="XOc9_vDRdyOMPMZFaufi-133" value="ready" style="text;html=1;align=center;verticalAlign=middle;resizable=0;points=[];autosize=1;strokeColor=none;fillColor=none;" parent="1" vertex="1">
          <mxGeometry x="13.5" y="463" width="50" height="30" as="geometry" />
        </mxCell>
        <mxCell id="XOc9_vDRdyOMPMZFaufi-134" value="clk" style="text;html=1;align=center;verticalAlign=middle;whiteSpace=wrap;rounded=0;" parent="1" vertex="1">
          <mxGeometry x="-6" y="321" width="70" height="30" as="geometry" />
        </mxCell>
        <mxCell id="XOc9_vDRdyOMPMZFaufi-135" value="valid" style="text;html=1;align=center;verticalAlign=middle;whiteSpace=wrap;rounded=0;" parent="1" vertex="1">
          <mxGeometry x="-6" y="343" width="70" height="30" as="geometry" />
        </mxCell>
        <mxCell id="XOc9_vDRdyOMPMZFaufi-136" value="" style="endArrow=classic;html=1;rounded=0;strokeWidth=3;" parent="1" edge="1">
          <mxGeometry width="50" height="50" relative="1" as="geometry">
            <mxPoint x="4" y="430.23" as="sourcePoint" />
            <mxPoint x="164" y="430.23" as="targetPoint" />
          </mxGeometry>
        </mxCell>
        <mxCell id="XOc9_vDRdyOMPMZFaufi-137" value="" style="endArrow=classic;html=1;rounded=0;strokeWidth=3;" parent="1" edge="1">
          <mxGeometry width="50" height="50" relative="1" as="geometry">
            <mxPoint x="4" y="396.5" as="sourcePoint" />
            <mxPoint x="164" y="396.5" as="targetPoint" />
          </mxGeometry>
        </mxCell>
        <mxCell id="XOc9_vDRdyOMPMZFaufi-138" value="" style="endArrow=classic;html=1;rounded=0;strokeWidth=3;" parent="1" edge="1">
          <mxGeometry width="50" height="50" relative="1" as="geometry">
            <mxPoint x="3.5" y="370" as="sourcePoint" />
            <mxPoint x="163.5" y="370" as="targetPoint" />
          </mxGeometry>
        </mxCell>
        <mxCell id="XOc9_vDRdyOMPMZFaufi-139" value="" style="endArrow=classic;html=1;rounded=0;strokeWidth=3;" parent="1" edge="1">
          <mxGeometry width="50" height="50" relative="1" as="geometry">
            <mxPoint x="4" y="346.23" as="sourcePoint" />
            <mxPoint x="164" y="346.23" as="targetPoint" />
          </mxGeometry>
        </mxCell>
        <mxCell id="VN-eHyt6kYfMbYtqsBXD-1" value="" style="edgeStyle=orthogonalEdgeStyle;rounded=0;orthogonalLoop=1;jettySize=auto;html=1;strokeWidth=3;entryX=0.112;entryY=0.993;entryDx=0;entryDy=0;entryPerimeter=0;" parent="1" target="pzHLP5PFSMqDfCKK6MuQ-24" edge="1">
          <mxGeometry relative="1" as="geometry">
            <mxPoint x="600" y="245.5" as="targetPoint" />
            <mxPoint x="600.3" y="405.5" as="sourcePoint" />
          </mxGeometry>
        </mxCell>
        <mxCell id="VN-eHyt6kYfMbYtqsBXD-14" value="" style="edgeStyle=orthogonalEdgeStyle;rounded=0;orthogonalLoop=1;jettySize=auto;html=1;strokeWidth=3;" parent="1" edge="1">
          <mxGeometry relative="1" as="geometry">
            <mxPoint x="1080" y="120" as="targetPoint" />
            <mxPoint x="918" y="119.95" as="sourcePoint" />
            <Array as="points">
              <mxPoint x="967" y="119.94999999999955" />
            </Array>
          </mxGeometry>
        </mxCell>
        <mxCell id="pzHLP5PFSMqDfCKK6MuQ-24" value="&lt;font style=&quot;font-size: 24px;&quot;&gt;Motion Map&lt;/font&gt;&lt;div&gt;&lt;font style=&quot;font-size: 24px;&quot;&gt;Generator&lt;/font&gt;&lt;/div&gt;" style="rounded=0;whiteSpace=wrap;html=1;" parent="1" vertex="1">
          <mxGeometry x="560" y="11.5" width="358" height="210" as="geometry" />
        </mxCell>
        <mxCell id="pzHLP5PFSMqDfCKK6MuQ-25" value="mmg_enable" style="text;html=1;align=center;verticalAlign=middle;resizable=0;points=[];autosize=1;strokeColor=none;fillColor=none;" parent="1" vertex="1">
          <mxGeometry x="519" y="313" width="90" height="30" as="geometry" />
        </mxCell>
        <mxCell id="pzHLP5PFSMqDfCKK6MuQ-26" value="last_in_frame" style="text;html=1;align=center;verticalAlign=middle;resizable=0;points=[];autosize=1;strokeColor=none;fillColor=none;" parent="1" vertex="1">
          <mxGeometry x="601" y="313" width="100" height="30" as="geometry" />
        </mxCell>
        <mxCell id="pzHLP5PFSMqDfCKK6MuQ-29" value="wr_background" style="text;html=1;align=center;verticalAlign=middle;resizable=0;points=[];autosize=1;strokeColor=none;fillColor=none;" parent="1" vertex="1">
          <mxGeometry x="684" y="313" width="110" height="30" as="geometry" />
        </mxCell>
        <mxCell id="pzHLP5PFSMqDfCKK6MuQ-32" value="[7:0] threshold" style="text;html=1;align=center;verticalAlign=middle;resizable=0;points=[];autosize=1;strokeColor=none;fillColor=none;" parent="1" vertex="1">
          <mxGeometry x="787.5" y="313" width="100" height="30" as="geometry" />
        </mxCell>
        <mxCell id="pzHLP5PFSMqDfCKK6MuQ-33" value="" style="edgeStyle=orthogonalEdgeStyle;rounded=0;orthogonalLoop=1;jettySize=auto;html=1;strokeWidth=3;entryX=0.112;entryY=0.993;entryDx=0;entryDy=0;entryPerimeter=0;" parent="1" edge="1">
          <mxGeometry relative="1" as="geometry">
            <mxPoint x="690.5" y="220" as="targetPoint" />
            <mxPoint x="690.8" y="405.5" as="sourcePoint" />
          </mxGeometry>
        </mxCell>
        <mxCell id="pzHLP5PFSMqDfCKK6MuQ-34" value="" style="edgeStyle=orthogonalEdgeStyle;rounded=0;orthogonalLoop=1;jettySize=auto;html=1;strokeWidth=3;entryX=0.112;entryY=0.993;entryDx=0;entryDy=0;entryPerimeter=0;" parent="1" edge="1">
          <mxGeometry relative="1" as="geometry">
            <mxPoint x="786.59" y="220" as="targetPoint" />
            <mxPoint x="786.89" y="405.5" as="sourcePoint" />
          </mxGeometry>
        </mxCell>
        <mxCell id="pzHLP5PFSMqDfCKK6MuQ-35" value="" style="edgeStyle=orthogonalEdgeStyle;rounded=0;orthogonalLoop=1;jettySize=auto;html=1;strokeWidth=3;entryX=0.112;entryY=0.993;entryDx=0;entryDy=0;entryPerimeter=0;" parent="1" edge="1">
          <mxGeometry relative="1" as="geometry">
            <mxPoint x="880" y="220" as="targetPoint" />
            <mxPoint x="880.3" y="405.5" as="sourcePoint" />
          </mxGeometry>
        </mxCell>
        <mxCell id="pzHLP5PFSMqDfCKK6MuQ-36" value="&lt;span style=&quot;font-size: 24px;&quot;&gt;Bounding Box&lt;/span&gt;&lt;div&gt;&lt;span style=&quot;font-size: 24px;&quot;&gt;Generator&lt;/span&gt;&lt;/div&gt;" style="rounded=0;whiteSpace=wrap;html=1;" parent="1" vertex="1">
          <mxGeometry x="1080" y="8" width="358" height="210" as="geometry" />
        </mxCell>
        <mxCell id="pzHLP5PFSMqDfCKK6MuQ-37" value="" style="edgeStyle=orthogonalEdgeStyle;rounded=0;orthogonalLoop=1;jettySize=auto;html=1;strokeWidth=3;entryX=0.112;entryY=0.993;entryDx=0;entryDy=0;entryPerimeter=0;" parent="1" edge="1">
          <mxGeometry relative="1" as="geometry">
            <mxPoint x="1131" y="221.5" as="targetPoint" />
            <mxPoint x="1131.3" y="407" as="sourcePoint" />
          </mxGeometry>
        </mxCell>
        <mxCell id="pzHLP5PFSMqDfCKK6MuQ-38" value="bbg_enable" style="text;html=1;align=center;verticalAlign=middle;resizable=0;points=[];autosize=1;strokeColor=none;fillColor=none;" parent="1" vertex="1">
          <mxGeometry x="1050" y="314.5" width="90" height="30" as="geometry" />
        </mxCell>
        <mxCell id="pzHLP5PFSMqDfCKK6MuQ-39" value="last_in_frame" style="text;html=1;align=center;verticalAlign=middle;resizable=0;points=[];autosize=1;strokeColor=none;fillColor=none;" parent="1" vertex="1">
          <mxGeometry x="1132" y="314.5" width="100" height="30" as="geometry" />
        </mxCell>
        <mxCell id="pzHLP5PFSMqDfCKK6MuQ-40" value="&lt;span style=&quot;text-wrap-mode: wrap;&quot;&gt;[10:0]width&lt;/span&gt;" style="text;html=1;align=center;verticalAlign=middle;resizable=0;points=[];autosize=1;strokeColor=none;fillColor=none;" parent="1" vertex="1">
          <mxGeometry x="1244.5" y="313" width="80" height="30" as="geometry" />
        </mxCell>
        <mxCell id="pzHLP5PFSMqDfCKK6MuQ-41" value="&lt;span style=&quot;text-wrap-mode: wrap;&quot;&gt;[9:0]height&lt;/span&gt;" style="text;html=1;align=center;verticalAlign=middle;resizable=0;points=[];autosize=1;strokeColor=none;fillColor=none;" parent="1" vertex="1">
          <mxGeometry x="1334" y="313" width="80" height="30" as="geometry" />
        </mxCell>
        <mxCell id="pzHLP5PFSMqDfCKK6MuQ-42" value="" style="edgeStyle=orthogonalEdgeStyle;rounded=0;orthogonalLoop=1;jettySize=auto;html=1;strokeWidth=3;entryX=0.112;entryY=0.993;entryDx=0;entryDy=0;entryPerimeter=0;" parent="1" edge="1">
          <mxGeometry relative="1" as="geometry">
            <mxPoint x="1221.5" y="221.5" as="targetPoint" />
            <mxPoint x="1221.8" y="407" as="sourcePoint" />
          </mxGeometry>
        </mxCell>
        <mxCell id="pzHLP5PFSMqDfCKK6MuQ-43" value="" style="edgeStyle=orthogonalEdgeStyle;rounded=0;orthogonalLoop=1;jettySize=auto;html=1;strokeWidth=3;entryX=0.112;entryY=0.993;entryDx=0;entryDy=0;entryPerimeter=0;" parent="1" edge="1">
          <mxGeometry relative="1" as="geometry">
            <mxPoint x="1317.5900000000001" y="221.5" as="targetPoint" />
            <mxPoint x="1317.8899999999999" y="407" as="sourcePoint" />
          </mxGeometry>
        </mxCell>
        <mxCell id="pzHLP5PFSMqDfCKK6MuQ-44" value="" style="edgeStyle=orthogonalEdgeStyle;rounded=0;orthogonalLoop=1;jettySize=auto;html=1;strokeWidth=3;entryX=0.112;entryY=0.993;entryDx=0;entryDy=0;entryPerimeter=0;" parent="1" edge="1">
          <mxGeometry relative="1" as="geometry">
            <mxPoint x="1411" y="221.5" as="targetPoint" />
            <mxPoint x="1411.3" y="407" as="sourcePoint" />
          </mxGeometry>
        </mxCell>
        <mxCell id="pzHLP5PFSMqDfCKK6MuQ-46" value="motion_detected" style="text;html=1;align=center;verticalAlign=middle;resizable=0;points=[];autosize=1;strokeColor=none;fillColor=none;" parent="1" vertex="1">
          <mxGeometry x="941" y="85.5" width="110" height="30" as="geometry" />
        </mxCell>
        <mxCell id="pzHLP5PFSMqDfCKK6MuQ-61" value="" style="edgeStyle=orthogonalEdgeStyle;rounded=0;orthogonalLoop=1;jettySize=auto;html=1;strokeWidth=3;" parent="1" edge="1">
          <mxGeometry relative="1" as="geometry">
            <mxPoint x="1600" y="111.89000000000001" as="targetPoint" />
            <mxPoint x="1438" y="111.84" as="sourcePoint" />
            <Array as="points">
              <mxPoint x="1487" y="111.83999999999955" />
            </Array>
          </mxGeometry>
        </mxCell>
        <mxCell id="pzHLP5PFSMqDfCKK6MuQ-62" value="[31:0]highlighted_pixel" style="text;html=1;align=center;verticalAlign=middle;whiteSpace=wrap;rounded=0;" parent="1" vertex="1">
          <mxGeometry x="1478" y="80.99" width="70" height="30" as="geometry" />
        </mxCell>
        <mxCell id="pzHLP5PFSMqDfCKK6MuQ-71" value="" style="endArrow=classic;startArrow=classic;html=1;rounded=0;exitX=0.5;exitY=1;exitDx=0;exitDy=0;strokeWidth=3;" parent="1" edge="1">
          <mxGeometry width="50" height="50" relative="1" as="geometry">
            <mxPoint x="305.33" y="202.5" as="sourcePoint" />
            <mxPoint x="305" y="403" as="targetPoint" />
          </mxGeometry>
        </mxCell>
      </root>
    </mxGraphModel>
  </diagram>
</mxfile>
